<svg xmlns="http://www.w3.org/2000/svg" viewBox="0 0 200 200"><defs><style>.cls-1{fill:#f7e536;}.cls-2{fill:#34589c;}</style></defs><title>bb-logo</title><g id="Camada_2" data-name="Camada 2"><g id="Camada_1-2" data-name="Camada 1"><rect class="cls-1" x="0.29" y="0.29" width="199.42" height="199.42" transform="translate(-0.29 0.29) rotate(-0.17)"/><path class="cls-2" d="M57.87,153.14a14.17,14.17,0,0,1,2.68,8.76q0,7.46-4.65,11.32t-13.4,3.89L21,177.17l-.16-55.95,20.63-.06q8.49,0,13.1,3.73t4.64,10.9a12.92,12.92,0,0,1-2.32,7.82,13.94,13.94,0,0,1-6.53,4.82A12.88,12.88,0,0,1,57.87,153.14Zm-33.63-6,16.9,0q7.14,0,10.86-3t3.7-8.74q0-11.11-14.63-11.07l-16.9,0Zm29.23,24q3.6-2.87,3.59-8.82t-3.72-9q-3.7-3-11-3l-18.09.05.07,23.73L42.42,174Q49.88,174,53.48,171.12Z"/></g></g></svg>