<svg xmlns="http://www.w3.org/2000/svg" viewBox="0 0 169 169"><defs><style>.cls-1{fill:#a01127;}.cls-2{fill:#fff;}</style></defs><title>habitasampa_thumb</title><g id="Camada_2" data-name="Camada 2"><g id="Camada_1-2" data-name="Camada 1"><rect class="cls-1" width="169" height="169"/><polygon id="Line-Copy-14" class="cls-2" points="18 67.46 84.97 40.72 82.85 40.74 151.06 66.93 154.62 68.29 156.7 58.96 153.14 57.6 84.93 31.41 83.87 31 82.81 31.42 15.85 58.16 12.3 59.57 14.46 68.88 18 67.46"/><path class="cls-2" d="M57.17,92.12V71.79H45.49v2.87A1.26,1.26,0,0,0,46.57,76q.61.2,4.48.82v40.32l-3.81.75a1.26,1.26,0,0,0-1.09,1.3V122h15.9v-2.87a1.26,1.26,0,0,0-1.09-1.3c-.27-.07-1.22-.27-3-.61l-.82-.14V96.62C60,93.42,63,91.78,66.41,91.78c4.82,0,7.27,2.8,7.27,8.25v22H84.62v-2.87a1.2,1.2,0,0,0-1-1.3q-.61-.2-3.87-.82V100c0-4-1-7.23-3-9.55s-4.89-3.55-8.56-3.55c-4.14,0-7.75,1.77-11,5.18Z"/><path class="cls-2" d="M99.89,82.59A4.19,4.19,0,0,0,98.34,86a3.85,3.85,0,0,0,1.9,3.37q1.9,1.25,8.78,3t10.69,5.1q3.8,3.4,3.8,9.93a13.13,13.13,0,0,1-4.88,10.59Q113.76,122,105.81,122q-11.48,0-20.68-8.54l6.43-7.92q7.82,6.88,14.46,6.88a7.57,7.57,0,0,0,4.67-1.28,4.13,4.13,0,0,0,1.69-3.47,4.05,4.05,0,0,0-1.8-3.47q-1.8-1.28-7.12-2.6-8.44-2-12.35-5.24T87.2,86.2q0-6.91,4.95-10.66a19.85,19.85,0,0,1,12.35-3.75,29.59,29.59,0,0,1,9.68,1.67,25.91,25.91,0,0,1,8.44,4.72l-5.46,7.92a21.24,21.24,0,0,0-13-4.79,6.49,6.49,0,0,0-4.25,1.28Z"/></g></g></svg>