<svg xmlns="http://www.w3.org/2000/svg" viewBox="0 0 179.62 200"><defs><style>.cls-1{fill:#d93f3b;}.cls-2{opacity:0.2;}</style></defs><title>vistame-logo</title><g id="Camada_2" data-name="Camada 2"><g id="Camada_1-2" data-name="Camada 1"><polygon class="cls-1" points="31.89 138.99 1.33 61 1.33 193.45 31.87 193.45 31.89 193.51 31.89 138.99"/><polygon class="cls-1" points="178.89 61 148.33 138.99 148.33 193.51 148.35 193.45 178.89 193.45 178.89 61"/><polygon class="cls-1" points="147.6 90.94 147.4 90.92 179.62 6 179.62 5.97 150.1 0 90 151.88 29.83 0 0 5.69 31.05 86.5 31.09 86.61 75.83 200 104.52 200 147.6 90.92 147.6 90.94"/><polygon class="cls-2" points="31.89 193.51 1.33 113.43 1.33 61 31.89 138.99 31.89 193.51"/><polygon class="cls-2" points="148.33 193.51 178.89 113.43 178.89 61 148.33 138.99 148.33 193.51"/></g></g></svg>