<svg xmlns="http://www.w3.org/2000/svg" viewBox="0 0 400 389.97"><defs><style>.cls-1{fill:#262424;}</style></defs><title>Ativo 9</title><g id="Camada_2" data-name="Camada 2"><g id="Camada_1-2" data-name="Camada 1"><path class="cls-1" d="M169.15,178q5.25-3.23,5.26-11.41c0-6.08-2.32-10.07-7-12a49,49,0,0,0-15.33-2H123.9v28.7h31.53Q163.85,181.28,169.15,178Z"/><path class="cls-1" d="M260.26,182.07c-6.41,0-11.42,1.83-15,5.5s-5.77,8.63-6.68,14.89h43.22c-.45-6.68-2.7-11.73-6.67-15.21A22,22,0,0,0,260.26,182.07Z"/><path class="cls-1" d="M168.79,205c-3.08-1.41-7.41-2.15-13-2.2H123.9v34.69h31.48c5.63,0,10-.77,13.14-2.29C174.21,232.35,177,227,177,219,177,212.18,174.31,207.54,168.79,205Z"/><path class="cls-1" d="M380.19,108.21,324.7,38.62,244.5,0h-89L75.3,38.62,19.8,108.21,0,195l19.8,86.78,55.5,69.59L155.49,390h89l80.2-38.62,55.49-69.59L400,195ZM232.13,136.06H287.7v16.18H232.13ZM198.62,241.54a35.74,35.74,0,0,1-23.82,16.77,89.82,89.82,0,0,1-18.32,1.74H98V130h62.66q23.72.35,33.61,13.86,5.94,8.29,5.95,19.85,0,11.9-6,19.16a31.13,31.13,0,0,1-9.89,7.4,29.14,29.14,0,0,1,15,11.48q5,7.83,5,19.06A38,38,0,0,1,198.62,241.54ZM307.86,219H238c.42,9.64,3.73,16.41,10,20.28A25.38,25.38,0,0,0,261.87,243c5.69,0,10.34-1.47,13.91-4.41a20.94,20.94,0,0,0,5.17-6.62h25.6q-1,8.54-9.29,17.39-12.88,14-36.07,14a52,52,0,0,1-33.76-11.83q-14.68-11.82-14.64-38.5,0-25,13.2-38.35t34.29-13.34a54.42,54.42,0,0,1,22.55,4.52,38.79,38.79,0,0,1,16.56,14.23A47,47,0,0,1,307,200,124.56,124.56,0,0,1,307.86,219Z"/></g></g></svg>