<svg xmlns="http://www.w3.org/2000/svg" viewBox="0 0 400 389.97"><defs><style>.cls-1{fill:#262424;}</style></defs><title>Ativo 7</title><g id="Camada_2" data-name="Camada 2"><g id="Camada_1-2" data-name="Camada 1"><path class="cls-1" d="M380.19,108.21,324.7,38.62,244.5,0h-89L75.3,38.62,19.8,108.21,0,195l19.8,86.78,55.5,69.59L155.49,390h89l80.2-38.62,55.49-69.59L400,195ZM301,136.46c-.84,1.41-5.18,6.35-9.79,10.87-7.84,7.77-8.26,8.62-8.26,15.11,0,10-4.76,30.93-9.51,42.37-8.81,21.47-27.7,43.64-46.59,54.8-26.58,15.68-62,19.63-91.77,10.45-9.94-3.11-27-11-27-12.43,0-.42,5.18-1,11.47-1.13A78.79,78.79,0,0,0,157,246.06l7.55-4.52-8.68-3c-12.31-4.24-23.36-14-26.16-23.16-.84-3-.56-3.11,7.28-3.11l8.11-.14-6.85-3.25c-8.12-4.1-15.53-11-19.17-18.08-2.66-5.09-6-17.94-5-18.93.28-.42,3.22.42,6.58,1.55,9.65,3.53,10.91,2.68,5.31-3.25-10.49-10.73-13.71-26.69-8.67-41.81l2.38-6.78,9.23,9.18c18.89,18.5,41.13,29.52,66.59,32.77l7,.85-.42-6.92c-1.26-17.93,9.79-34.32,27.28-40.67,6.44-2.26,17.35-2.54,24.48-.57,2.8.85,8.12,3.67,11.89,6.22l6.86,4.66,7.55-2.4a78,78,0,0,0,12.31-4.8c2.38-1.27,4.47-2,4.47-1.55,0,2.4-5.18,10.59-9.51,15.11-5.87,6.35-4.19,6.92,7.7,2.68C302.22,133.78,302.36,133.78,301,136.46Z"/></g></g></svg>