<svg xmlns="http://www.w3.org/2000/svg" viewBox="0 0 400 389.97"><defs><style>.cls-1{fill:#262424;}</style></defs><title>Ativo 8</title><g id="Camada_2" data-name="Camada 2"><g id="Camada_1-2" data-name="Camada 1"><path class="cls-1" d="M380.19,108.21,324.7,38.62,244.5,0h-89L75.3,38.62,19.8,108.21,0,195l19.8,86.78,55.5,69.59L155.49,390h89l80.2-38.62,55.49-69.59L400,195ZM146,291.83H100.73V155.65H146ZM123.39,137.06h-.29C107.89,137.06,98,126.6,98,113.52,98,100.17,108.18,90,123.69,90s25,10.17,25.35,23.52C149,126.6,139.19,137.06,123.39,137.06ZM309.51,291.83H264.18V219c0-18.3-6.56-30.79-23-30.79-12.52,0-20,8.42-23.25,16.55-1.2,2.92-1.49,7-1.49,11v76.05H171.14s.6-123.4,0-136.18h45.33v19.29c6-9.27,16.79-22.49,40.85-22.49,29.82,0,52.18,19.47,52.18,61.3Z"/></g></g></svg>