<svg xmlns="http://www.w3.org/2000/svg" viewBox="0 0 188.68 188.68"><defs><style>.cls-1{fill:#667072;}.cls-2{fill:#fff;}</style></defs><title>sph_thumb</title><g id="Camada_2" data-name="Camada 2"><g id="Camada_1-2" data-name="Camada 1"><rect class="cls-1" width="188.68" height="188.68"/><path class="cls-2" d="M62.1,108.58V100a1.8,1.8,0,0,0-.45-1.38,2.32,2.32,0,0,0-1.56-.41H53.53q-8.79,0-8.79-8.34V79.1q0-8.19,9.38-8.19h9.08q9.38,0,9.38,8.19v6.18H61.95V80.59q0-1.86-2-1.86H57.41q-2,0-2,1.86v8.34a1.8,1.8,0,0,0,.45,1.38,2.32,2.32,0,0,0,1.56.41h6.4q4.76,0,6.85,2t2.09,6.07V110q0,8.27-9.38,8.27h-9q-9.46,0-9.46-8.27v-6.11H55.54v4.69q0,1.86,2,1.86h2.53Q62.1,110.45,62.1,108.58Z"/><path class="cls-2" d="M78.55,70.91H98.06q9.38,0,9.38,8.19V93.47q0,8.27-9.38,8.27H89.13v16.53H78.55ZM96.8,92.05V80.59q0-1.86-1.94-1.86H89.13V93.91h5.73Q96.8,93.91,96.8,92.05Z"/><path class="cls-2" d="M132.54,70.91H143v47.36h-10.5V98.75H123v19.51h-10.5V70.91H123v20h9.53Z"/></g></g></svg>